<?xml version="1.0" encoding="UTF-8" standalone="no"?><svg xmlns="http://www.w3.org/2000/svg" xmlns:xlink="http://www.w3.org/1999/xlink" contentStyleType="text/css" height="564px" preserveAspectRatio="none" style="width:179px;height:564px;background:#FFFFFF;" version="1.1" viewBox="0 0 179 564" width="179px" zoomAndPan="magnify"><defs/><g><!--MD5=[8bc087b45dd58ab9ded14528c53be1f4]
class AbstractUser--><g id="elem_AbstractUser"><rect codeLine="1" fill="#F1F1F1" height="64.2969" id="AbstractUser" rx="2.5" ry="2.5" style="stroke:#181818;stroke-width:0.5;" width="135" x="22" y="7"/><ellipse cx="43.3" cy="23" fill="#A9DCDF" rx="11" ry="11" style="stroke:#181818;stroke-width:1.0;"/><path d="M43.4094,18.3438 L42.2531,23.4219 L44.5813,23.4219 L43.4094,18.3438 Z M41.925,16.1094 L44.9094,16.1094 L48.2688,28.5 L45.8156,28.5 L45.05,25.4375 L41.7688,25.4375 L41.0188,28.5 L38.5813,28.5 L41.925,16.1094 Z " fill="#000000"/><text fill="#000000" font-family="sans-serif" font-size="14" font-style="italic" lengthAdjust="spacing" textLength="89" x="58.7" y="27.8467">AbstractUser</text><line style="stroke:#181818;stroke-width:0.5;" x1="23" x2="156" y1="39" y2="39"/><line style="stroke:#181818;stroke-width:0.5;" x1="23" x2="156" y1="47" y2="47"/><ellipse cx="33" cy="60.6484" fill="#84BE84" rx="3" ry="3" style="stroke:#038048;stroke-width:1.0;"/><text fill="#000000" font-family="sans-serif" font-size="14" lengthAdjust="spacing" textLength="109" x="42" y="63.9951">showInfo(): void</text></g><!--MD5=[1d96419c9b636af9e889ffce64560c08]
class SuperUserInterface--><g id="elem_SuperUserInterface"><rect codeLine="5" fill="#F1F1F1" height="64.2969" id="SuperUserInterface" rx="2.5" ry="2.5" style="stroke:#181818;stroke-width:0.5;" width="165" x="7" y="493"/><ellipse cx="22" cy="509" fill="#B4A7E5" rx="11" ry="11" style="stroke:#181818;stroke-width:1.0;"/><path d="M17.9219,504.7656 L17.9219,502.6094 L25.3125,502.6094 L25.3125,504.7656 L22.8438,504.7656 L22.8438,512.8438 L25.3125,512.8438 L25.3125,515 L17.9219,515 L17.9219,512.8438 L20.3906,512.8438 L20.3906,504.7656 L17.9219,504.7656 Z " fill="#000000"/><text fill="#000000" font-family="sans-serif" font-size="14" font-style="italic" lengthAdjust="spacing" textLength="133" x="36" y="513.8467">SuperUserInterface</text><line style="stroke:#181818;stroke-width:0.5;" x1="8" x2="171" y1="525" y2="525"/><line style="stroke:#181818;stroke-width:0.5;" x1="8" x2="171" y1="533" y2="533"/><ellipse cx="18" cy="546.6484" fill="#84BE84" rx="3" ry="3" style="stroke:#038048;stroke-width:1.0;"/><text fill="#000000" font-family="sans-serif" font-size="14" lengthAdjust="spacing" textLength="95" x="27" y="549.9951">getInfo(): void</text></g><!--MD5=[59dc4530c1bb6ed366a3247bb0c66097]
class SuperUser--><g id="elem_SuperUser"><rect codeLine="9" fill="#F1F1F1" height="113.1875" id="SuperUser" rx="2.5" ry="2.5" style="stroke:#181818;stroke-width:0.5;" width="135" x="22" y="320"/><ellipse cx="50.5" cy="336" fill="#ADD1B2" rx="11" ry="11" style="stroke:#181818;stroke-width:1.0;"/><path d="M53.4688,341.6406 Q52.8906,341.9375 52.25,342.0781 Q51.6094,342.2344 50.9063,342.2344 Q48.4063,342.2344 47.0781,340.5938 Q45.7656,338.9375 45.7656,335.8125 Q45.7656,332.6875 47.0781,331.0313 Q48.4063,329.375 50.9063,329.375 Q51.6094,329.375 52.25,329.5313 Q52.9063,329.6875 53.4688,329.9844 L53.4688,332.7031 Q52.8438,332.125 52.25,331.8594 Q51.6563,331.5781 51.0313,331.5781 Q49.6875,331.5781 49,332.6563 Q48.3125,333.7188 48.3125,335.8125 Q48.3125,337.9063 49,338.9844 Q49.6875,340.0469 51.0313,340.0469 Q51.6563,340.0469 52.25,339.7813 Q52.8438,339.5 53.4688,338.9219 L53.4688,341.6406 Z " fill="#000000"/><text fill="#000000" font-family="sans-serif" font-size="14" lengthAdjust="spacing" textLength="73" x="67.5" y="340.8467">SuperUser</text><line style="stroke:#181818;stroke-width:0.5;" x1="23" x2="156" y1="352" y2="352"/><ellipse cx="33" cy="365.6484" fill="none" rx="3" ry="3" style="stroke:#038048;stroke-width:1.0;"/><text fill="#000000" font-family="sans-serif" font-size="14" lengthAdjust="spacing" textLength="84" x="42" y="368.9951">$role: String</text><ellipse cx="33" cy="381.9453" fill="none" rx="3" ry="3" style="stroke:#038048;stroke-width:1.0;"/><text fill="#000000" font-family="sans-serif" font-size="14" lengthAdjust="spacing" textLength="108" x="42" y="385.292">$userCount: int</text><line style="stroke:#181818;stroke-width:0.5;" x1="23" x2="156" y1="392.5938" y2="392.5938"/><ellipse cx="33" cy="406.2422" fill="#84BE84" rx="3" ry="3" style="stroke:#038048;stroke-width:1.0;"/><text fill="#000000" font-family="sans-serif" font-size="14" lengthAdjust="spacing" textLength="109" x="42" y="409.5889">showInfo(): void</text><ellipse cx="33" cy="422.5391" fill="#84BE84" rx="3" ry="3" style="stroke:#038048;stroke-width:1.0;"/><text fill="#000000" font-family="sans-serif" font-size="14" lengthAdjust="spacing" textLength="95" x="42" y="425.8857">getInfo(): void</text></g><!--MD5=[3fd616f346a44cd59a91eb10b19e157c]
class User--><g id="elem_User"><rect codeLine="16" fill="#F1F1F1" height="129.4844" id="User" rx="2.5" ry="2.5" style="stroke:#181818;stroke-width:0.5;" width="151" x="14" y="131"/><ellipse cx="69.25" cy="147" fill="#ADD1B2" rx="11" ry="11" style="stroke:#181818;stroke-width:1.0;"/><path d="M72.2188,152.6406 Q71.6406,152.9375 71,153.0781 Q70.3594,153.2344 69.6563,153.2344 Q67.1563,153.2344 65.8281,151.5938 Q64.5156,149.9375 64.5156,146.8125 Q64.5156,143.6875 65.8281,142.0313 Q67.1563,140.375 69.6563,140.375 Q70.3594,140.375 71,140.5313 Q71.6563,140.6875 72.2188,140.9844 L72.2188,143.7031 Q71.5938,143.125 71,142.8594 Q70.4063,142.5781 69.7813,142.5781 Q68.4375,142.5781 67.75,143.6563 Q67.0625,144.7188 67.0625,146.8125 Q67.0625,148.9063 67.75,149.9844 Q68.4375,151.0469 69.7813,151.0469 Q70.4063,151.0469 71,150.7813 Q71.5938,150.5 72.2188,149.9219 L72.2188,152.6406 Z " fill="#000000"/><text fill="#000000" font-family="sans-serif" font-size="14" lengthAdjust="spacing" textLength="32" x="89.75" y="151.8467">User</text><line style="stroke:#181818;stroke-width:0.5;" x1="15" x2="164" y1="163" y2="163"/><ellipse cx="25" cy="176.6484" fill="none" rx="3" ry="3" style="stroke:#038048;stroke-width:1.0;"/><text fill="#000000" font-family="sans-serif" font-size="14" lengthAdjust="spacing" textLength="97" x="34" y="179.9951">$name: String</text><ellipse cx="25" cy="192.9453" fill="none" rx="3" ry="3" style="stroke:#038048;stroke-width:1.0;"/><text fill="#000000" font-family="sans-serif" font-size="14" lengthAdjust="spacing" textLength="91" x="34" y="196.292">$login: String</text><ellipse cx="25" cy="209.2422" fill="none" rx="3" ry="3" style="stroke:#038048;stroke-width:1.0;"/><text fill="#000000" font-family="sans-serif" font-size="14" lengthAdjust="spacing" textLength="125" x="34" y="212.5889">$password: String</text><ellipse cx="25" cy="225.5391" fill="none" rx="3" ry="3" style="stroke:#038048;stroke-width:1.0;"/><text fill="#000000" font-family="sans-serif" font-size="14" lengthAdjust="spacing" textLength="108" x="34" y="228.8857">$userCount: int</text><line style="stroke:#181818;stroke-width:0.5;" x1="15" x2="164" y1="236.1875" y2="236.1875"/><ellipse cx="25" cy="249.8359" fill="#84BE84" rx="3" ry="3" style="stroke:#038048;stroke-width:1.0;"/><text fill="#000000" font-family="sans-serif" font-size="14" lengthAdjust="spacing" textLength="109" x="34" y="253.1826">showInfo(): void</text></g><!--MD5=[e860eb00e61cb90b3f4591b3ae11ac71]
reverse link AbstractUser to User--><g id="link_AbstractUser_User"><path codeLine="25" d="M89.5,91.72 C89.5,104.23 89.5,117.74 89.5,130.73 " fill="none" id="AbstractUser-backto-User" style="stroke:#181818;stroke-width:1.0;"/><polygon fill="none" points="82.5,91.27,89.5,71.27,96.5,91.27,82.5,91.27" style="stroke:#181818;stroke-width:1.0;"/></g><!--MD5=[d62e0b30270bd37b68b47eafe5c9be9f]
reverse link User to SuperUser--><g id="link_User_SuperUser"><path codeLine="26" d="M89.5,280.21 C89.5,293.64 89.5,307.25 89.5,319.82 " fill="none" id="User-backto-SuperUser" style="stroke:#181818;stroke-width:1.0;"/><polygon fill="none" points="82.5,280.11,89.5,260.11,96.5,280.11,82.5,280.11" style="stroke:#181818;stroke-width:1.0;"/></g><!--MD5=[c9377fedd809b9a6f055afd11d4bb9b8]
link SuperUser to SuperUserInterface--><g id="link_SuperUser_SuperUserInterface"><path codeLine="27" d="M89.5,433.3 C89.5,446.25 89.5,459.98 89.5,472.72 " fill="none" id="SuperUser-to-SuperUserInterface" style="stroke:#181818;stroke-width:1.0;stroke-dasharray:7.0,7.0;"/><polygon fill="none" points="96.5,472.94,89.5,492.94,82.5,472.94,96.5,472.94" style="stroke:#181818;stroke-width:1.0;"/></g><!--MD5=[519a7b7a4aa49c1189619cea512207d1]
@startuml
abstract class AbstractUser {
    +showInfo(): void
}

interface SuperUserInterface {
    +getInfo(): void
}

class SuperUser {
    +$role: String
    +$userCount: int
    +showInfo(): void
    +getInfo(): void
}

class User {
    +$name: String 
    +$login: String
    +$password: String
    +$userCount: int
    +showInfo(): void
  
}

AbstractUser <|- - User
User <|- - SuperUser 
SuperUser ..|> SuperUserInterface
@enduml

PlantUML version 1.2022.7(Mon Aug 22 17:01:30 UTC 2022)
(GPL source distribution)
Java Runtime: OpenJDK Runtime Environment
JVM: OpenJDK 64-Bit Server VM
Default Encoding: UTF-8
Language: en
Country: null
--></g></svg>