<svg xmlns="http://www.w3.org/2000/svg" xmlns:xlink="http://www.w3.org/1999/xlink" contentStyleType="text/css" data-diagram-type="CLASS" height="565px" preserveAspectRatio="none" style="width:181px;height:565px;background:#FFFFFF;" version="1.1" viewBox="0 0 181 565" width="181px" zoomAndPan="magnify"><defs/><g><!--class AbstractUser--><g class="entity" data-entity="AbstractUser" data-source-line="3" data-uid="ent0002" id="entity_AbstractUser"><rect fill="#F1F1F1" height="64.2969" rx="3.5" ry="3.5" style="stroke:#181818;stroke-width:0.5;" width="138.3965" x="21.6" y="7"/><ellipse cx="43.673" cy="23" fill="#A9DCDF" rx="11" ry="11" style="stroke:#181818;stroke-width:1;"/><path d="M43.7824,18.3438 L42.6261,23.4219 L44.9542,23.4219 L43.7824,18.3438 Z M42.298,16.1094 L45.2824,16.1094 L48.6417,28.5 L46.1886,28.5 L45.423,25.4375 L42.1417,25.4375 L41.3917,28.5 L38.9542,28.5 L42.298,16.1094 Z " fill="#000000"/><text fill="#000000" font-family="sans-serif" font-size="14" font-style="italic" lengthAdjust="spacing" textLength="90.6787" x="59.2448" y="27.8467">AbstractUser</text><line style="stroke:#181818;stroke-width:0.5;" x1="22.6" x2="158.9965" y1="39" y2="39"/><line style="stroke:#181818;stroke-width:0.5;" x1="22.6" x2="158.9965" y1="47" y2="47"/><ellipse cx="32.6" cy="60.6484" fill="#84BE84" rx="3" ry="3" style="stroke:#038048;stroke-width:1;"/><text fill="#000000" font-family="sans-serif" font-size="14" lengthAdjust="spacing" textLength="112.3965" x="41.6" y="63.9951">showInfo(): void</text></g><!--class SuperUserInterface--><g class="entity" data-entity="SuperUserInterface" data-source-line="7" data-uid="ent0003" id="entity_SuperUserInterface"><rect fill="#F1F1F1" height="64.2969" rx="3.5" ry="3.5" style="stroke:#181818;stroke-width:0.5;" width="167.6045" x="7" y="493.97"/><ellipse cx="22" cy="509.97" fill="#B4A7E5" rx="11" ry="11" style="stroke:#181818;stroke-width:1;"/><path d="M17.9219,505.7356 L17.9219,503.5794 L25.3125,503.5794 L25.3125,505.7356 L22.8438,505.7356 L22.8438,513.8138 L25.3125,513.8138 L25.3125,515.97 L17.9219,515.97 L17.9219,513.8138 L20.3906,513.8138 L20.3906,505.7356 L17.9219,505.7356 Z " fill="#000000"/><text fill="#000000" font-family="sans-serif" font-size="14" font-style="italic" lengthAdjust="spacing" textLength="135.6045" x="36" y="514.8167">SuperUserInterface</text><line style="stroke:#181818;stroke-width:0.5;" x1="8" x2="173.6045" y1="525.97" y2="525.97"/><line style="stroke:#181818;stroke-width:0.5;" x1="8" x2="173.6045" y1="533.97" y2="533.97"/><ellipse cx="18" cy="547.6184" fill="#84BE84" rx="3" ry="3" style="stroke:#038048;stroke-width:1;"/><text fill="#000000" font-family="sans-serif" font-size="14" lengthAdjust="spacing" textLength="99.2031" x="27" y="550.9651">getInfo(): void</text></g><!--class SuperUser--><g class="entity" data-entity="SuperUser" data-source-line="11" data-uid="ent0004" id="entity_SuperUser"><rect fill="#F1F1F1" height="113.1875" rx="3.5" ry="3.5" style="stroke:#181818;stroke-width:0.5;" width="138.3965" x="21.6" y="320.79"/><ellipse cx="51.6618" cy="336.79" fill="#ADD1B2" rx="11" ry="11" style="stroke:#181818;stroke-width:1;"/><path d="M54.6306,342.4306 Q54.0524,342.7275 53.4118,342.8681 Q52.7712,343.0244 52.0681,343.0244 Q49.5681,343.0244 48.2399,341.3837 Q46.9274,339.7275 46.9274,336.6025 Q46.9274,333.4775 48.2399,331.8212 Q49.5681,330.165 52.0681,330.165 Q52.7712,330.165 53.4118,330.3212 Q54.0681,330.4775 54.6306,330.7744 L54.6306,333.4931 Q54.0056,332.915 53.4118,332.6494 Q52.8181,332.3681 52.1931,332.3681 Q50.8493,332.3681 50.1618,333.4462 Q49.4743,334.5087 49.4743,336.6025 Q49.4743,338.6962 50.1618,339.7744 Q50.8493,340.8369 52.1931,340.8369 Q52.8181,340.8369 53.4118,340.5712 Q54.0056,340.29 54.6306,339.7119 L54.6306,342.4306 Z " fill="#000000"/><text fill="#000000" font-family="sans-serif" font-size="14" lengthAdjust="spacing" textLength="72.9258" x="69.0089" y="341.6367">SuperUser</text><line style="stroke:#181818;stroke-width:0.5;" x1="22.6" x2="158.9965" y1="352.79" y2="352.79"/><ellipse cx="32.6" cy="366.4384" fill="none" rx="3" ry="3" style="stroke:#038048;stroke-width:1;"/><text fill="#000000" font-family="sans-serif" font-size="14" lengthAdjust="spacing" textLength="86.6797" x="41.6" y="369.7851">$role: String</text><ellipse cx="32.6" cy="382.7353" fill="none" rx="3" ry="3" style="stroke:#038048;stroke-width:1;"/><text fill="#000000" font-family="sans-serif" font-size="14" lengthAdjust="spacing" textLength="108.4385" x="41.6" y="386.082">$userCount: int</text><line style="stroke:#181818;stroke-width:0.5;" x1="22.6" x2="158.9965" y1="393.3837" y2="393.3837"/><ellipse cx="32.6" cy="407.0322" fill="#84BE84" rx="3" ry="3" style="stroke:#038048;stroke-width:1;"/><text fill="#000000" font-family="sans-serif" font-size="14" lengthAdjust="spacing" textLength="112.3965" x="41.6" y="410.3789">showInfo(): void</text><ellipse cx="32.6" cy="423.3291" fill="#84BE84" rx="3" ry="3" style="stroke:#038048;stroke-width:1;"/><text fill="#000000" font-family="sans-serif" font-size="14" lengthAdjust="spacing" textLength="99.2031" x="41.6" y="426.6757">getInfo(): void</text></g><!--class User--><g class="entity" data-entity="User" data-source-line="18" data-uid="ent0005" id="entity_User"><rect fill="#F1F1F1" height="129.4844" rx="3.5" ry="3.5" style="stroke:#181818;stroke-width:0.5;" width="152.5674" x="14.52" y="131.3"/><ellipse cx="70.5986" cy="147.3" fill="#ADD1B2" rx="11" ry="11" style="stroke:#181818;stroke-width:1;"/><path d="M73.5674,152.9406 Q72.9892,153.2375 72.3486,153.3781 Q71.708,153.5344 71.0049,153.5344 Q68.5049,153.5344 67.1767,151.8937 Q65.8642,150.2375 65.8642,147.1125 Q65.8642,143.9875 67.1767,142.3312 Q68.5049,140.675 71.0049,140.675 Q71.708,140.675 72.3486,140.8312 Q73.0049,140.9875 73.5674,141.2844 L73.5674,144.0031 Q72.9424,143.425 72.3486,143.1594 Q71.7549,142.8781 71.1299,142.8781 Q69.7861,142.8781 69.0986,143.9562 Q68.4111,145.0187 68.4111,147.1125 Q68.4111,149.2062 69.0986,150.2844 Q69.7861,151.3469 71.1299,151.3469 Q71.7549,151.3469 72.3486,151.0812 Q72.9424,150.8 73.5674,150.2219 L73.5674,152.9406 Z " fill="#000000"/><text fill="#000000" font-family="sans-serif" font-size="14" lengthAdjust="spacing" textLength="31.9102" x="91.0986" y="152.1467">User</text><line style="stroke:#181818;stroke-width:0.5;" x1="15.52" x2="166.0874" y1="163.3" y2="163.3"/><ellipse cx="25.52" cy="176.9484" fill="none" rx="3" ry="3" style="stroke:#038048;stroke-width:1;"/><text fill="#000000" font-family="sans-serif" font-size="14" lengthAdjust="spacing" textLength="99.5586" x="34.52" y="180.2951">$name: String</text><ellipse cx="25.52" cy="193.2453" fill="none" rx="3" ry="3" style="stroke:#038048;stroke-width:1;"/><text fill="#000000" font-family="sans-serif" font-size="14" lengthAdjust="spacing" textLength="93.96" x="34.52" y="196.592">$login: String</text><ellipse cx="25.52" cy="209.5422" fill="none" rx="3" ry="3" style="stroke:#038048;stroke-width:1;"/><text fill="#000000" font-family="sans-serif" font-size="14" lengthAdjust="spacing" textLength="126.5674" x="34.52" y="212.8889">$password: String</text><ellipse cx="25.52" cy="225.8391" fill="none" rx="3" ry="3" style="stroke:#038048;stroke-width:1;"/><text fill="#000000" font-family="sans-serif" font-size="14" lengthAdjust="spacing" textLength="108.4385" x="34.52" y="229.1857">$userCount: int</text><line style="stroke:#181818;stroke-width:0.5;" x1="15.52" x2="166.0874" y1="236.4875" y2="236.4875"/><ellipse cx="25.52" cy="250.1359" fill="#84BE84" rx="3" ry="3" style="stroke:#038048;stroke-width:1;"/><text fill="#000000" font-family="sans-serif" font-size="14" lengthAdjust="spacing" textLength="112.3965" x="34.52" y="253.4826">showInfo(): void</text></g><!--reverse link AbstractUser to User--><g class="link" data-entity-1="AbstractUser" data-entity-2="User" data-source-line="27" data-uid="lnk6" id="link_AbstractUser_User"><path codeLine="27" d="M90.8,89.5 C90.8,106.65 90.8,110.54 90.8,131.11" fill="none" id="AbstractUser-backto-User" style="stroke:#454645;stroke-width:1;"/><polygon fill="none" points="90.8,71.5,84.8,89.5,96.8,89.5,90.8,71.5" style="stroke:#454645;stroke-width:1;"/></g><!--reverse link User to SuperUser--><g class="link" data-entity-1="User" data-entity-2="SuperUser" data-source-line="28" data-uid="lnk7" id="link_User_SuperUser"><path codeLine="28" d="M90.8,279.28 C90.8,298.58 90.8,301.59 90.8,320.31" fill="none" id="User-backto-SuperUser" style="stroke:#454645;stroke-width:1;"/><polygon fill="none" points="90.8,261.28,84.8,279.28,96.8,279.28,90.8,261.28" style="stroke:#454645;stroke-width:1;"/></g><!--link SuperUser to SuperUserInterface--><g class="link" data-entity-1="SuperUser" data-entity-2="SuperUserInterface" data-source-line="29" data-uid="lnk8" id="link_SuperUser_SuperUserInterface"><path codeLine="29" d="M90.8,434.27 C90.8,454.36 90.8,458.3 90.8,475.59" fill="none" id="SuperUser-to-SuperUserInterface" style="stroke:#454645;stroke-width:1;stroke-dasharray:7.0,7.0;"/><polygon fill="none" points="90.8,493.59,96.8,475.59,84.8,475.59,90.8,493.59" style="stroke:#454645;stroke-width:1;"/></g><!--SRC=[TP3D3e8m48Jl-nHhma5Zu068CJ6UE1CVe4219j2IRO63-EuM-HF4dhgJcNoJEPYSbnmR4H6J1e15sX2B3SO5qnflu_dGdF09QDzPvweDPAgE9nyR9H9u0GXfEAKivXZM5QVU7ipIcCkusSO6o1oPdEYGAhYFeI4XiqchhUEkQcbyjBXH_Iapo7zPtnX7idAcuAWLAXDoZNOgcsmL9Hjvhz1Ednw-sl7IkUwd22pdiW4iNy_hhZk3lW40]--></g></svg>